<svg xmlns="http://www.w3.org/2000/svg" xmlns:xlink="http://www.w3.org/1999/xlink" viewBox="0 0 141.7 163.98"><defs><style>.cls-1{fill:#00924d;}.cls-2{fill:url(#linear-gradient);}.cls-3{fill:url(#linear-gradient-2);}.cls-4{fill:url(#linear-gradient-3);}.cls-5{fill:url(#linear-gradient-4);}.cls-6{fill:url(#linear-gradient-5);}.cls-7{fill:url(#linear-gradient-6);}.cls-8{fill:url(#radial-gradient);}.cls-9{fill:url(#linear-gradient-7);}.cls-10{fill:#009d4d;}.cls-11{fill:url(#linear-gradient-8);}.cls-12{fill:url(#linear-gradient-9);}.cls-13{fill:#007440;}.cls-14{fill:url(#radial-gradient-2);}.cls-15{fill:url(#linear-gradient-10);}.cls-16{fill:url(#radial-gradient-3);}.cls-17{fill:url(#linear-gradient-11);}.cls-18{fill:url(#radial-gradient-4);}.cls-19{fill:#070b11;}.cls-20{fill:#00a551;}.cls-21{fill:url(#linear-gradient-12);}.cls-22{fill:#fff;}.cls-23{fill:url(#linear-gradient-13);}.cls-24{fill:#231f20;}.cls-25{fill:url(#linear-gradient-14);}.cls-26{fill:url(#linear-gradient-15);}.cls-27{fill:url(#linear-gradient-16);}.cls-28{fill:url(#linear-gradient-17);}.cls-29{fill:url(#linear-gradient-18);}.cls-30{fill:url(#linear-gradient-19);}.cls-31{fill:url(#linear-gradient-20);}.cls-32{fill:url(#linear-gradient-21);}.cls-33{fill:url(#linear-gradient-22);}.cls-34{fill:url(#linear-gradient-23);}.cls-35{fill:url(#radial-gradient-5);}.cls-36{fill:url(#linear-gradient-24);}.cls-37{fill:url(#radial-gradient-6);}.cls-38{fill:#00824a;}.cls-39{fill:url(#linear-gradient-25);}.cls-40{fill:url(#linear-gradient-26);}.cls-41{fill:url(#linear-gradient-27);}.cls-42{fill:url(#linear-gradient-28);}.cls-43{fill:url(#linear-gradient-29);}.cls-44{fill:url(#linear-gradient-30);}.cls-45{fill:url(#linear-gradient-31);}.cls-46{fill:url(#linear-gradient-32);}.cls-47{fill:url(#linear-gradient-33);}.cls-48{fill:url(#linear-gradient-34);}.cls-49{fill:url(#linear-gradient-35);}.cls-50{fill:url(#linear-gradient-36);}.cls-51{fill:url(#linear-gradient-37);}.cls-52{fill:url(#linear-gradient-38);}.cls-53{fill:url(#linear-gradient-39);}.cls-54{fill:url(#linear-gradient-40);}.cls-55{fill:url(#linear-gradient-41);}.cls-56{fill:url(#linear-gradient-42);}.cls-57{fill:url(#linear-gradient-43);}.cls-58{fill:url(#linear-gradient-44);}.cls-59{fill:url(#linear-gradient-45);}.cls-60{fill:url(#linear-gradient-46);}.cls-61{fill:url(#linear-gradient-47);}.cls-62{fill:url(#linear-gradient-48);}.cls-63{fill:url(#linear-gradient-49);}.cls-64{fill:url(#linear-gradient-50);}.cls-65{fill:#006133;}.cls-66{fill:url(#linear-gradient-51);}.cls-67{fill:url(#radial-gradient-7);}.cls-68{fill:#004562;}.cls-69{fill:url(#radial-gradient-8);}.cls-70{fill:url(#linear-gradient-52);}.cls-71{fill:url(#linear-gradient-53);}</style><linearGradient id="linear-gradient" x1="861.13" y1="111.85" x2="867.52" y2="111.85" gradientTransform="translate(-758.56 -34.91)" gradientUnits="userSpaceOnUse"><stop offset="0" stop-color="#84c341"/><stop offset="0.24" stop-color="#9ecf66"/><stop offset="0.59" stop-color="#bfde97"/><stop offset="0.85" stop-color="#d4e7b6"/><stop offset="1" stop-color="#dcebc1"/></linearGradient><linearGradient id="linear-gradient-2" x1="843.73" y1="85.9" x2="863.72" y2="85.9" xlink:href="#linear-gradient"/><linearGradient id="linear-gradient-3" x1="845.82" y1="104.13" x2="861.51" y2="104.13" xlink:href="#linear-gradient"/><linearGradient id="linear-gradient-4" x1="848.01" y1="102.17" x2="863.33" y2="102.17" xlink:href="#linear-gradient"/><linearGradient id="linear-gradient-5" x1="523.91" y1="43.94" x2="529.7" y2="43.94" gradientTransform="translate(-160.63 -324.73) rotate(45) scale(0.83)" gradientUnits="userSpaceOnUse"><stop offset="0" stop-color="#b9bbbd"/><stop offset="0.07" stop-color="#ced0d1"/><stop offset="0.17" stop-color="#e4e5e5"/><stop offset="0.28" stop-color="#f3f4f4"/><stop offset="0.41" stop-color="#fcfcfc"/><stop offset="0.59" stop-color="#fff"/><stop offset="1" stop-color="#838587"/></linearGradient><linearGradient id="linear-gradient-6" x1="523.63" y1="43.95" x2="529.42" y2="43.95" gradientTransform="translate(-148.53 -312.63) rotate(45) scale(0.83)" xlink:href="#linear-gradient-5"/><radialGradient id="radial-gradient" cx="835.9" cy="15.81" r="17.11" gradientTransform="translate(-1055.67 6.77) scale(1.4)" gradientUnits="userSpaceOnUse"><stop offset="0.01" stop-color="#89c540"/><stop offset="1" stop-color="#00a550"/></radialGradient><linearGradient id="linear-gradient-7" x1="862.22" y1="76.03" x2="894.37" y2="76.03" xlink:href="#linear-gradient"/><linearGradient id="linear-gradient-8" x1="861.95" y1="62.94" x2="880.19" y2="62.94" xlink:href="#linear-gradient"/><linearGradient id="linear-gradient-9" x1="857.85" y1="68.21" x2="873.74" y2="68.21" xlink:href="#linear-gradient"/><radialGradient id="radial-gradient-2" cx="-2964.92" cy="2572.01" fy="2526.3232986476287" r="75.73" gradientTransform="translate(1776.75 -313.08) scale(0.58 0.18)" gradientUnits="userSpaceOnUse"><stop offset="0.01" stop-color="#a6a8ab"/><stop offset="0.46" stop-color="#d0d2d3"/><stop offset="1" stop-color="#fff"/></radialGradient><linearGradient id="linear-gradient-10" x1="-1997.87" y1="322.99" x2="-1986.55" y2="265.59" gradientTransform="matrix(0.22, 0.16, -0.2, 0.27, 610.8, 339.11)" gradientUnits="userSpaceOnUse"><stop offset="0.01" stop-color="#97a3a9"/><stop offset="1" stop-color="#d9dbdc"/></linearGradient><radialGradient id="radial-gradient-3" cx="399.89" cy="-93.83" r="4.87" gradientTransform="translate(-545.75 248.96) scale(1.66)" gradientUnits="userSpaceOnUse"><stop offset="0.01" stop-color="#a2c7d9"/><stop offset="1" stop-color="#070b11"/></radialGradient><linearGradient id="linear-gradient-11" x1="-1298.46" y1="-90.34" x2="-1287.14" y2="-147.72" gradientTransform="matrix(-0.22, 0.16, 0.2, 0.27, -247.03, 339.83)" xlink:href="#linear-gradient-10"/><radialGradient id="radial-gradient-4" cx="332.81" cy="-93.98" r="4.68" gradientTransform="translate(-546.97 250.67) scale(1.66)" xlink:href="#radial-gradient-3"/><linearGradient id="linear-gradient-12" x1="-2971.94" y1="567.75" x2="-2967.16" y2="494.98" gradientTransform="translate(1061.89 -94.79) scale(0.34)" gradientUnits="userSpaceOnUse"><stop offset="0" stop-color="#fff"/><stop offset="0.13" stop-color="#f7fcfe"/><stop offset="0.33" stop-color="#e0f4fb"/><stop offset="0.58" stop-color="#bae6f6"/><stop offset="0.87" stop-color="#87d3ef"/><stop offset="1" stop-color="#6ecaec"/></linearGradient><linearGradient id="linear-gradient-13" x1="-2950.62" y1="547.43" x2="-2882.06" y2="547.43" gradientTransform="translate(1062.89 -91.18) scale(0.34)" gradientUnits="userSpaceOnUse"><stop offset="0" stop-color="#94b9cb"/><stop offset="0.48" stop-color="#91b2c3"/><stop offset="1" stop-color="#8ba7b4"/></linearGradient><linearGradient id="linear-gradient-14" x1="-3239.29" y1="141.99" x2="-3224.89" y2="69" gradientTransform="translate(1272.01 -120.1) rotate(-10) scale(0.39)" gradientUnits="userSpaceOnUse"><stop offset="0.01" stop-color="#606770"/><stop offset="0.06" stop-color="#5e656c"/><stop offset="0.11" stop-color="#585d61"/><stop offset="0.17" stop-color="#4d514d"/><stop offset="0.22" stop-color="#3f4032"/><stop offset="0.27" stop-color="#2c2b0f"/><stop offset="0.28" stop-color="#282607"/><stop offset="0.36" stop-color="#37361d"/><stop offset="0.57" stop-color="#5b5c4f"/><stop offset="0.76" stop-color="#757873"/><stop offset="0.91" stop-color="#85898a"/><stop offset="1" stop-color="#8b8f92"/></linearGradient><linearGradient id="linear-gradient-15" x1="-2651.08" y1="245.7" x2="-2636.68" y2="172.72" gradientTransform="matrix(-0.39, -0.07, -0.07, 0.39, -905.16, -120.1)" xlink:href="#linear-gradient-14"/><linearGradient id="linear-gradient-16" x1="-3555.18" y1="866.62" x2="-3540.79" y2="793.64" gradientTransform="translate(857.34 -211.37) rotate(-10) scale(0.24)" xlink:href="#linear-gradient-14"/><linearGradient id="linear-gradient-17" x1="-2604.62" y1="1034.28" x2="-2590.23" y2="961.3" gradientTransform="matrix(-0.24, -0.04, -0.04, 0.24, -490.49, -211.37)" xlink:href="#linear-gradient-14"/><linearGradient id="linear-gradient-18" x1="-1935.58" y1="1365.95" x2="-1935.58" y2="1196.71" gradientTransform="translate(714.75 -239.42) scale(0.34 0.29)" gradientUnits="userSpaceOnUse"><stop offset="0.01" stop-color="#00a551"/><stop offset="0.05" stop-color="#04a650"/><stop offset="0.09" stop-color="#0fa94f"/><stop offset="0.14" stop-color="#23ad4c"/><stop offset="0.18" stop-color="#3eb448"/><stop offset="0.22" stop-color="#62bd43"/><stop offset="0.26" stop-color="#8cc73d"/><stop offset="0.28" stop-color="#a5cd39"/><stop offset="0.44" stop-color="#75c140"/><stop offset="0.62" stop-color="#43b547"/><stop offset="0.79" stop-color="#1fac4d"/><stop offset="0.92" stop-color="#08a750"/><stop offset="1" stop-color="#00a551"/></linearGradient><linearGradient id="linear-gradient-19" x1="-2872.54" y1="2526.4" x2="-2878.47" y2="2445.01" gradientTransform="translate(374.15 -333.53) scale(0.12 0.18)" xlink:href="#linear-gradient-10"/><linearGradient id="linear-gradient-20" x1="-2872.49" y1="2526.38" x2="-2878.42" y2="2444.99" gradientTransform="translate(374.14 -333.54) scale(0.12 0.18)" gradientUnits="userSpaceOnUse"><stop offset="0" stop-color="#ffc119"/><stop offset="1" stop-color="#fff100"/></linearGradient><linearGradient id="linear-gradient-21" x1="-967.77" y1="2526.03" x2="-973.7" y2="2444.64" gradientTransform="matrix(-0.12, 0, 0, 0.18, -9.26, -333.87)" xlink:href="#linear-gradient-10"/><linearGradient id="linear-gradient-22" x1="-967.72" y1="2526.38" x2="-973.65" y2="2444.99" gradientTransform="matrix(-0.12, 0, 0, 0.18, -9.25, -333.54)" xlink:href="#linear-gradient-20"/><linearGradient id="linear-gradient-23" x1="-3209.48" y1="613.29" x2="-3186.52" y2="613.29" gradientTransform="translate(1103.05 -83.26) scale(0.34)" xlink:href="#linear-gradient-10"/><radialGradient id="radial-gradient-5" cx="-3233.97" cy="390.25" r="5.35" gradientTransform="translate(1547.18 -60.74) scale(0.47)" gradientUnits="userSpaceOnUse"><stop offset="0.01" stop-color="#f8e17e"/><stop offset="1" stop-color="#ee8031"/></radialGradient><linearGradient id="linear-gradient-24" x1="-2506.38" y1="613.29" x2="-2483.42" y2="613.29" gradientTransform="matrix(-0.34, 0, 0, 0.34, -737.95, -83.26)" xlink:href="#linear-gradient-10"/><radialGradient id="radial-gradient-6" cx="-2399.71" cy="390.25" r="5.35" gradientTransform="matrix(-0.47, 0, 0, 0.47, -1026.6, -60.74)" xlink:href="#radial-gradient-5"/><linearGradient id="linear-gradient-25" x1="-1503.44" y1="-3599.5" x2="-1510.64" y2="-3488.02" gradientTransform="translate(-216.8 -539.19) rotate(180) scale(0.19)" gradientUnits="userSpaceOnUse"><stop offset="0" stop-color="#cccbca"/><stop offset="1" stop-color="#9e9ea3"/></linearGradient><linearGradient id="linear-gradient-26" x1="-1144.08" y1="-2830.3" x2="-1150.14" y2="-2913.47" gradientTransform="translate(-149.01 -413.41) rotate(180) scale(0.19)" xlink:href="#linear-gradient-25"/><linearGradient id="linear-gradient-27" x1="-1328.63" y1="-2925.52" x2="-1340.16" y2="-3083.76" gradientTransform="translate(-163.5 -441.75) rotate(180) scale(0.19)" xlink:href="#linear-gradient-25"/><linearGradient id="linear-gradient-28" x1="-1326.35" y1="-2925.52" x2="-1337.88" y2="-3083.79" gradientTransform="translate(-165.56 -441.75) rotate(180) scale(0.19)" xlink:href="#linear-gradient-25"/><linearGradient id="linear-gradient-29" x1="-1324.07" y1="-2925.56" x2="-1335.6" y2="-3083.8" gradientTransform="translate(-167.61 -441.75) rotate(180) scale(0.19)" xlink:href="#linear-gradient-25"/><linearGradient id="linear-gradient-30" x1="-1321.8" y1="-2925.55" x2="-1333.33" y2="-3083.81" gradientTransform="translate(-169.67 -441.75) rotate(180) scale(0.19)" xlink:href="#linear-gradient-25"/><linearGradient id="linear-gradient-31" x1="-1319.56" y1="-2925.57" x2="-1331.09" y2="-3083.84" gradientTransform="translate(-171.73 -441.75) rotate(180) scale(0.19)" xlink:href="#linear-gradient-25"/><linearGradient id="linear-gradient-32" x1="-1317.34" y1="-2925.56" x2="-1328.87" y2="-3083.85" gradientTransform="translate(-173.78 -441.75) rotate(180) scale(0.19)" xlink:href="#linear-gradient-25"/><linearGradient id="linear-gradient-33" x1="-1315.16" y1="-2925.58" x2="-1326.69" y2="-3083.84" gradientTransform="translate(-175.84 -441.75) rotate(180) scale(0.19)" xlink:href="#linear-gradient-25"/><linearGradient id="linear-gradient-34" x1="-1312.99" y1="-2925.58" x2="-1324.52" y2="-3083.84" gradientTransform="translate(-177.9 -441.75) rotate(180) scale(0.19)" xlink:href="#linear-gradient-25"/><linearGradient id="linear-gradient-35" x1="-1310.84" y1="-2925.59" x2="-1322.37" y2="-3083.84" gradientTransform="translate(-179.96 -441.75) rotate(180) scale(0.19)" xlink:href="#linear-gradient-25"/><linearGradient id="linear-gradient-36" x1="-1308.72" y1="-2925.59" x2="-1320.25" y2="-3083.84" gradientTransform="translate(-182.01 -441.75) rotate(180) scale(0.19)" xlink:href="#linear-gradient-25"/><linearGradient id="linear-gradient-37" x1="-1306.65" y1="-2925.57" x2="-1318.18" y2="-3083.84" gradientTransform="translate(-184.07 -441.75) rotate(180) scale(0.19)" xlink:href="#linear-gradient-25"/><linearGradient id="linear-gradient-38" x1="-1304.59" y1="-2925.59" x2="-1316.11" y2="-3083.82" gradientTransform="translate(-186.13 -441.75) rotate(180) scale(0.19)" xlink:href="#linear-gradient-25"/><linearGradient id="linear-gradient-39" x1="-1302.55" y1="-2925.58" x2="-1314.08" y2="-3083.84" gradientTransform="translate(-188.19 -441.75) rotate(180) scale(0.19)" xlink:href="#linear-gradient-25"/><linearGradient id="linear-gradient-40" x1="-1300.54" y1="-2925.56" x2="-1312.07" y2="-3083.83" gradientTransform="translate(-190.25 -441.75) rotate(180) scale(0.19)" xlink:href="#linear-gradient-25"/><linearGradient id="linear-gradient-41" x1="-1298.56" y1="-2925.54" x2="-1310.09" y2="-3083.81" gradientTransform="translate(-192.3 -441.75) rotate(180) scale(0.19)" xlink:href="#linear-gradient-25"/><linearGradient id="linear-gradient-42" x1="-1296.63" y1="-2925.55" x2="-1308.16" y2="-3083.79" gradientTransform="translate(-194.36 -441.75) rotate(180) scale(0.19)" xlink:href="#linear-gradient-25"/><linearGradient id="linear-gradient-43" x1="-1294.71" y1="-2925.52" x2="-1306.24" y2="-3083.79" gradientTransform="translate(-196.42 -441.75) rotate(180) scale(0.19)" xlink:href="#linear-gradient-25"/><linearGradient id="linear-gradient-44" x1="-1292.89" y1="-2925.5" x2="-1304.42" y2="-3083.74" gradientTransform="translate(-198.47 -441.75) rotate(180) scale(0.19)" xlink:href="#linear-gradient-25"/><linearGradient id="linear-gradient-45" x1="-2934.87" y1="298.94" x2="-2914.78" y2="197.07" gradientTransform="translate(1163.4 36.92) scale(0.38)" xlink:href="#linear-gradient-10"/><linearGradient id="linear-gradient-46" x1="-3275.3" y1="538.17" x2="-3275.3" y2="519.9" gradientTransform="translate(1295.13 -58.84) scale(0.38)" xlink:href="#linear-gradient-10"/><linearGradient id="linear-gradient-47" x1="-2806.49" y1="76.98" x2="-2795.17" y2="19.58" gradientTransform="matrix(0.26, 0.05, -0.08, 0.44, 844.57, 243.31)" xlink:href="#linear-gradient-10"/><linearGradient id="linear-gradient-48" x1="-3094.59" y1="374.97" x2="-3055.38" y2="176.16" gradientTransform="matrix(0.32, 0.06, -0.08, 0.44, 1106.45, 215.2)" xlink:href="#linear-gradient-10"/><linearGradient id="linear-gradient-49" x1="-3508.23" y1="-14.4" x2="-3496.91" y2="-71.8" gradientTransform="matrix(0.26, -0.05, 0.08, 0.44, 937.85, -6.5)" xlink:href="#linear-gradient-10"/><linearGradient id="linear-gradient-50" x1="-3666.74" y1="283.85" x2="-3627.53" y2="85.05" gradientTransform="matrix(0.32, -0.06, 0.08, 0.44, 1174.43, -121.87)" xlink:href="#linear-gradient-10"/><linearGradient id="linear-gradient-51" x1="-3026.92" y1="-130.85" x2="-3026.92" y2="-164.51" gradientTransform="translate(917.47 180.55) scale(0.28 0.5)" gradientUnits="userSpaceOnUse"><stop offset="0.01" stop-color="#00a551"/><stop offset="0.06" stop-color="#04a651"/><stop offset="0.1" stop-color="#0fa94f"/><stop offset="0.15" stop-color="#23ad4d"/><stop offset="0.2" stop-color="#3eb349"/><stop offset="0.24" stop-color="#61bb45"/><stop offset="0.28" stop-color="#86c440"/><stop offset="0.35" stop-color="#75c142"/><stop offset="0.56" stop-color="#43b946"/><stop offset="0.75" stop-color="#1fb34a"/><stop offset="0.9" stop-color="#08af4c"/><stop offset="1" stop-color="#00ae4d"/></linearGradient><radialGradient id="radial-gradient-7" cx="365.97" cy="-101.83" r="3.55" gradientTransform="translate(-545.75 248.96) scale(1.66)" gradientUnits="userSpaceOnUse"><stop offset="0.01" stop-color="#bcdbeb"/><stop offset="1" stop-color="#003546"/></radialGradient><radialGradient id="radial-gradient-8" cx="-3039.59" cy="330.97" r="8.79" gradientTransform="translate(1489.64 -76.85) scale(0.47)" gradientUnits="userSpaceOnUse"><stop offset="0.01" stop-color="#b3d9ec"/><stop offset="1" stop-color="#1b414f"/></radialGradient><linearGradient id="linear-gradient-52" x1="275.54" y1="-15.89" x2="274.79" y2="-26.17" gradientTransform="translate(-309.41 137.54) scale(1.19)" gradientUnits="userSpaceOnUse"><stop offset="0" stop-color="#fff"/><stop offset="1" stop-color="#fff470"/></linearGradient><linearGradient id="linear-gradient-53" x1="288.03" y1="-15.9" x2="287.28" y2="-26.17" gradientTransform="translate(-232.31 137.54) scale(1.19)" xlink:href="#linear-gradient-52"/></defs><g id="Layer_2" data-name="Layer 2"><g id="Layer_1-2" data-name="Layer 1"><path class="cls-1" d="M105.09,41.4c-3.59,2-18.18,12.3-17.64,17.92.38,4,6,6,11,7.65,7.43,2.45,10.81,4.65,11.19,8.41.46,4.47-4.21,7.32-4.75,7.63a2.49,2.49,0,0,1-2.5-4.3c.86-.51,2.41-1.86,2.31-2.83,0-.24-.07-1.64-7.8-4.2C87.57,68.62,83,65.16,82.5,59.79,81.56,49.93,101,38,102.67,37.06a2.48,2.48,0,1,1,2.42,4.34Z"/><path class="cls-2" d="M107.69,75.17a6.5,6.5,0,0,0-2.6-4.27c2.39,1.56,3.67,3.28,3.87,5.2.39,3.86-3.79,6.4-4.27,6.67a1.48,1.48,0,0,1-2-.54.72.72,0,0,1-.09-.2,1.38,1.38,0,0,0,.85-.19C103.91,81.57,108.09,79,107.69,75.17Z"/><path class="cls-3" d="M85.19,58.49c-.69-7.33,18-18.81,18.15-18.89a1.48,1.48,0,0,0,.65-1.85,1.47,1.47,0,0,1,1.19.75,1.51,1.51,0,0,1-.57,2c-.15.07-18.85,11.55-18.15,18.88a7.24,7.24,0,0,0,3,4.82Q85.51,61.63,85.19,58.49Z"/><path class="cls-4" d="M103,72.65c-1.33-.84-2.87-1-5.76-1.91a31.6,31.6,0,0,1-9.93-4.95,35.1,35.1,0,0,0,8.66,4C99.94,71.14,101.73,71.6,103,72.65Z"/><path class="cls-5" d="M89.45,64.24c2,1.29,4.14,1.66,7.41,2.74,3.75,1.24,6.1,1.79,7.91,3.3-1.75-1.15-3.68-1.39-6.65-2.37C94.08,66.58,91.47,65.89,89.45,64.24Z"/><path class="cls-6" d="M129.32,5.14,118,16.52c-.84.83-2.57.45-3.86-.84s-1.67-3-.84-3.86L124.63.45c.83-.84,2.56-.47,3.86.83S130.16,4.3,129.32,5.14Z"/><path class="cls-7" d="M141.26,17.08,129.88,28.45c-.84.83-2.57.46-3.86-.83s-1.67-3-.83-3.87l11.37-11.37c.84-.84,2.57-.47,3.87.83S142.09,16.24,141.26,17.08Z"/><path class="cls-8" d="M111.24,50.38c3.55-3.56,7.08-2,7.08-2,2.59.1,4.44.45,6.26-1.38l11.23-11.22c1.83-1.83,1.24-4.23-.59-6.06l-23-23c-1.82-1.83-4.23-2.42-6-.59L94.89,17.3c-1.83,1.82-1.48,3.68-1.38,6.26,0,0,1.55,3.53-2,7.09l-1.08,1.08c-1.57,1.64-2,5.07-.12,6.89l13,13c1.83,1.83,5.25,1.46,6.89-.12Z"/><path class="cls-1" d="M103.92,50.92c1,1,4,.13,4.93-.81-1,.94-3.22,1.18-4.26.14l-13-13c-1-1-.8-3.28.13-4.24L92.83,32a8.36,8.36,0,0,0,2.56-8.28v-.11l0-1c-.1-2-.15-2.94.88-4L107.45,7.4a3.15,3.15,0,0,1,4.06-.08h0c-.62-.62-2.81-2.51-4.73-.58L95.56,18c-1.33,1.32-1.26,2.59-1.15,4.68l0,.94v0c0,.24,1.48,3.93-2.28,7.69L91.1,32.38C89.84,33.7,89.53,36.52,91,38l12.7,12.7h0Z"/><path class="cls-9" d="M134.56,30.37h0a3.15,3.15,0,0,1-.08,4.07L123.25,45.66c-1,1-1.94,1-4,.87l-.92,0h-.17c-.25,0-4.26-1.47-8.28,2.55l-1.06,1.06c-1,.94-4.15,1.58-5.18.55l.25.26-.25-.26.25.26c1.44,1.43,4.27,1.12,5.58-.14l1.07-1.07c3.76-3.76,7.45-2.26,7.69-2.28h0l.93,0c2.09.11,3.36.18,4.68-1.14L135.15,35.1C137.07,33.18,135.19,31,134.56,30.37Z"/><path class="cls-10" d="M122.67,34.07,107.33,18.72A2.31,2.31,0,1,0,104.07,22l15.34,15.35a2.31,2.31,0,0,0,3.26-3.26Z"/><path class="cls-10" d="M116.22,38.17l-13-13A2.31,2.31,0,0,0,100,28.43l13,13a2.3,2.3,0,1,0,3.25-3.26Z"/><path class="cls-11" d="M105.24,22a2.31,2.31,0,0,1,0-3.26,2.44,2.44,0,0,1,1.05-.59A2.3,2.3,0,0,0,104.07,22l15.34,15.35a2.32,2.32,0,0,0,2.22.59,2.22,2.22,0,0,1-1-.59Z"/><path class="cls-12" d="M101.13,28.43a2.29,2.29,0,0,1,1.05-3.85A2.3,2.3,0,0,0,100,28.43l13,13a2.27,2.27,0,0,0,2.21.59,2.19,2.19,0,0,1-1-.59Z"/><path class="cls-13" d="M122.67,37.33a2.31,2.31,0,0,0,0-3.26L107.33,18.72a2.31,2.31,0,0,0-2.22-.59,2.47,2.47,0,0,1,1,.59L121.5,34.07a2.31,2.31,0,0,1,0,3.26,2.27,2.27,0,0,1-1,.59A2.29,2.29,0,0,0,122.67,37.33Z"/><path class="cls-13" d="M116.22,38.17l-13-13a2.29,2.29,0,0,0-2.21-.59,2.27,2.27,0,0,1,1,.59l13,13a2.3,2.3,0,0,1,0,3.26,2.27,2.27,0,0,1-1,.59,2.29,2.29,0,0,0,2.21-3.85Z"/><path class="cls-14" d="M112.39,151.42c0,6.94-21.06,12.56-47,12.56s-47-5.62-47-12.56,21.06-12.56,47-12.56S112.39,144.48,112.39,151.42Z"/><path class="cls-15" d="M115.16,100.43c2.83-3.89,3.83-8,2.25-9.14-.69-.49-1.74-.36-2.94.26.31,2.91-.56,7.34-4.76,13.78A15,15,0,0,0,115.16,100.43Z"/><path class="cls-16" d="M127.54,91.87c0-1.57-1.67-2.83-3.74-2.83l-6.25.47c-2.07,0-3.75,1.27-3.75,2.84V94a2.79,2.79,0,0,0,3.12,2.84h6.88c2.07,0,3.74-1.27,3.74-2.84Z"/><path class="cls-17" d="M12.39,101.29c-2.83-3.9-3.83-8-2.25-9.14.69-.5,1.74-.37,2.94.25-.31,2.92.56,7.35,4.75,13.78A15.1,15.1,0,0,1,12.39,101.29Z"/><path class="cls-18" d="M0,93.34c0-1.57,1.68-2.84,3.75-2.84L10,91c2.07,0,3.75,1.28,3.75,2.84l0,1.66a2.78,2.78,0,0,1-3.11,2.84H3.75C1.68,98.31,0,97,0,95.47Z"/><path class="cls-19" d="M.17,93.51c0-1.57,1.68-2.85,3.75-2.85l6.25.48a4.24,4.24,0,0,1,3,1.12A4.18,4.18,0,0,0,10,91L3.75,90.5C1.68,90.5,0,91.77,0,93.34v2.13a2.44,2.44,0,0,0,.78,1.72,2.4,2.4,0,0,1-.61-1.55Z"/><path class="cls-19" d="M127.38,92c0-1.57-1.68-2.84-3.75-2.84l-6.25.48a4.24,4.24,0,0,0-3,1.12,4.13,4.13,0,0,1,3.14-1.29L123.8,89c2.07,0,3.75,1.26,3.75,2.83V94a2.42,2.42,0,0,1-.78,1.71,2.36,2.36,0,0,0,.61-1.55Z"/><path class="cls-20" d="M112.85,96.75C100.69,70.31,95.61,73.07,64,73.07S27.39,70.31,15.22,96.75c-6.89,15,21.86,29.13,48.82,29.13S119.75,111.73,112.85,96.75Z"/><path class="cls-21" d="M72.18,74.74,64,74.79l-8.15-.05c-11.88-.1-19.06-.16-24.31,2.54-5.06,2.62-7.42,7.88-13,20.09-1.66,3.62-2.44,7.32.51,11,7.23,9,26.58,15.81,45,15.81s37.76-6.8,45-15.81c2.95-3.67,2.17-7.37.5-11-5.62-12.21-8-17.47-13.05-20.09C91.24,74.58,84.07,74.64,72.18,74.74Z"/><path class="cls-22" d="M44.25,74.81,25.31,113.65a47.9,47.9,0,0,0,6.65,3.7L52.75,74.72C49.57,74.7,46.75,74.7,44.25,74.81Z"/><path class="cls-22" d="M56.2,74.74H55L33.8,118.15c1,.42,2,.8,3,1.18L58.53,74.76Z"/><path class="cls-23" d="M84.27,87.25A11.61,11.61,0,0,0,72.81,97l1.88,0A9.75,9.75,0,0,1,94,97.7l1.87.14A11.59,11.59,0,0,0,84.27,87.25Z"/><rect class="cls-24" x="16.42" y="128.4" width="16.56" height="25.72" rx="5.64"/><path class="cls-25" d="M30.48,133.57A5.66,5.66,0,0,0,23.94,129l-5.19.92a5.65,5.65,0,0,0-4.58,6.54l2.51,14.21a5.64,5.64,0,0,0,6.54,4.58l5.18-.92A5.65,5.65,0,0,0,33,147.78Z"/><path class="cls-24" d="M103.89,128.4h5.27A5.65,5.65,0,0,1,114.8,134v14.43a5.64,5.64,0,0,1-5.64,5.64h-5.27a5.65,5.65,0,0,1-5.65-5.65V134A5.65,5.65,0,0,1,103.89,128.4Z"/><path class="cls-26" d="M100.75,133.57a5.65,5.65,0,0,1,6.54-4.58l5.19.92a5.63,5.63,0,0,1,4.57,6.54l-2.5,14.21a5.65,5.65,0,0,1-6.54,4.58l-5.19-.92a5.65,5.65,0,0,1-4.58-6.54Z"/><rect class="cls-24" x="35.18" y="129.91" width="10.24" height="15.91" rx="3.49"/><path class="cls-27" d="M43.87,133.11a3.49,3.49,0,0,0-4-2.83l-3.21.56a3.51,3.51,0,0,0-2.84,4l1.55,8.79a3.49,3.49,0,0,0,4.05,2.83l3.21-.56a3.49,3.49,0,0,0,2.83-4Z"/><rect class="cls-24" x="85.8" y="129.91" width="10.25" height="15.91" rx="3.49"/><path class="cls-28" d="M87.35,133.11a3.5,3.5,0,0,1,4.05-2.83l3.21.56a3.49,3.49,0,0,1,2.83,4l-1.55,8.79a3.49,3.49,0,0,1-4,2.83L88.63,146a3.5,3.5,0,0,1-2.83-4Z"/><path class="cls-29" d="M123.31,104.94c-4.16-10.79-26-12.27-58.14-12.27S11.19,94.15,7,104.94c-16.1,41.86,20.53,37.74,58.13,37.74S139.4,146.8,123.31,104.94Z"/><path class="cls-30" d="M19,107.9h-.45c-5.27,0-9.56,3.41-9.56,7.6s4.29,7.6,9.56,7.6,8.08-6.17,8.08-10.62a4.41,4.41,0,0,0-1.09-3.28C24.22,107.9,22.14,107.9,19,107.9Z"/><path class="cls-31" d="M25.49,112.48c0,3.58-2.29,9.48-6.95,9.48s-8.42-2.89-8.42-6.46S13.89,109,18.54,109,25.49,108.91,25.49,112.48Z"/><path class="cls-32" d="M103.36,108.8a4.41,4.41,0,0,0-1.09,3.28c0,4.45,2.8,10.62,8.08,10.62s9.56-3.41,9.56-7.6-4.29-7.6-9.56-7.6h-.45C106.75,107.5,104.67,107.5,103.36,108.8Z"/><path class="cls-33" d="M103.4,112.48c0,3.58,2.29,9.48,6.95,9.48s8.42-2.89,8.42-6.46S115,109,110.35,109,103.4,108.91,103.4,112.48Z"/><path class="cls-34" d="M30.36,119.14H30.2c-2.27,0-4.11,1.53-4.11,3.42S27.93,126,30.2,126s3.59-2.61,3.59-4.48a2.3,2.3,0,0,0-.6-1.69C32.51,119.14,31.56,119.14,30.36,119.14Z"/><path class="cls-35" d="M32.66,121.5c0,1.25-.82,3.35-2.46,3.35s-3-1-3-2.29,1.33-2.29,3-2.29S32.66,120.23,32.66,121.5Z"/><path class="cls-36" d="M98.78,119.14h.16c2.26,0,4.11,1.53,4.11,3.42S101.2,126,98.94,126s-3.6-2.61-3.6-4.48a2.26,2.26,0,0,1,.61-1.69C96.62,119.14,97.58,119.14,98.78,119.14Z"/><path class="cls-37" d="M96.48,121.5c0,1.25.81,3.35,2.46,3.35s3-1,3-2.29-1.34-2.29-3-2.29S96.48,120.23,96.48,121.5Z"/><path class="cls-38" d="M107.49,137.5s-13-5-13-17,9.32-14.43,15-24C109.48,96.43,73.68,124.51,107.49,137.5Z"/><path class="cls-38" d="M22.09,137.5s13-5,13-17-9.32-14.43-15-24C20.1,96.43,55.9,124.51,22.09,137.5Z"/><path class="cls-39" d="M40.7,120c0-5,11-6,24.54-6s24.54,1,24.54,6-11,12.27-24.54,12.27S40.7,125,40.7,120Z"/><path class="cls-40" d="M88.26,120c0-1.85-3.24-2.88-6-3.41-3.78-.75-9.19-1.09-17.06-1.09s-13.29.34-17.06,1.09c-2.72.53-6,1.56-6,3.41,0,3.68,9.73,10.76,23,10.76S88.26,123.67,88.26,120Z"/><path class="cls-24" d="M81.44,126.19c4.25-2.31,6.19-4.84,6.19-6.2,0-1.08-2-2.12-5.45-2.79-3.73-.74-9.12-1.08-16.94-1.08S52,116.46,48.3,117.2c-3.42.67-5.45,1.71-5.45,2.79,0,1.36,1.93,3.89,6.19,6.2a35.43,35.43,0,0,0,32.4,0Z"/><path class="cls-41" d="M86.66,122.12v-3.41a7.77,7.77,0,0,0-1.12-.56v5.17A10.05,10.05,0,0,0,86.66,122.12Z"/><path class="cls-42" d="M84.21,124.44v-6.75c-.35-.11-.73-.2-1.12-.3v7.82C83.49,125,83.86,124.7,84.21,124.44Z"/><path class="cls-43" d="M81.44,126.19l.31-.17v-8.91l-1.12-.18v9.68Q81.07,126.4,81.44,126.19Z"/><path class="cls-44" d="M79.29,127.24V116.75l-1.11-.13v11.09C78.57,127.55,79,127.4,79.29,127.24Z"/><path class="cls-45" d="M76.84,128.2V116.5l-1.12-.09v12.16Z"/><path class="cls-46" d="M74.39,129V116.33l-1.12,0v12.94Z"/><path class="cls-47" d="M71.93,129.5V116.22l-1.11,0v13.5Z"/><path class="cls-48" d="M69.48,129.87V116.16l-1.12,0V130Z"/><path class="cls-49" d="M67,130.07V116.12H65.91v14Z"/><path class="cls-50" d="M64.57,130.11v-14H63.45v13.95Z"/><path class="cls-51" d="M62.11,130V116.14l-1.11,0v13.71Z"/><path class="cls-52" d="M59.66,129.69v-13.5l-1.12,0V129.5Z"/><path class="cls-53" d="M57.21,129.22V116.28l-1.12,0V129Z"/><path class="cls-54" d="M54.75,128.57V116.41l-1.12.09v11.7Z"/><path class="cls-55" d="M52.3,127.71V116.62l-1.12.13v10.49C51.53,127.4,51.9,127.55,52.3,127.71Z"/><path class="cls-56" d="M49,126.19c.24.14.51.28.8.42v-9.68l-1.11.18V126A3.07,3.07,0,0,0,49,126.19Z"/><path class="cls-57" d="M47.39,125.21v-7.82c-.4.1-.77.19-1.12.3v6.75C46.62,124.7,47,125,47.39,125.21Z"/><path class="cls-58" d="M44.93,123.32v-5.17a7.61,7.61,0,0,0-1.11.56v3.41A10.79,10.79,0,0,0,44.93,123.32Z"/><path class="cls-59" d="M7.93,131.46c6.83,2.32,14.34.33,20.92,2.25,4.28,1.26,5.57,3.16,10.19,3.16H52.37c7.53,0,14.68,1.72,22.43,1.45,8-.28,16.06-2.79,23.86-3.9,4.55-.64,9,.63,13.48-.15,4.75-.82,9.13-3.05,13.88-3.92.85-.16,1.82-.32,2.81-.47-1.79-5.16-29.61,4.19-63.66,4.19-35.21,0-63.75-10-63.75-3.61a2.13,2.13,0,0,0,.16.81C3.35,130.4,5.55,130.66,7.93,131.46Z"/><path class="cls-60" d="M65.17,142c35.21,0,63.76-5.17,63.76-11.55a1.81,1.81,0,0,0-.1-.58c-1,.15-2,.31-2.81.47-4.75.87-9.13,3.1-13.88,3.92-4.45.78-8.93-.49-13.48.15-7.8,1.11-15.9,3.62-23.86,3.9-7.75.27-14.9-1.45-22.43-1.45H39c-4.62,0-5.91-1.9-10.19-3.16-6.58-1.92-14.09.07-20.92-2.25-2.38-.8-4.58-1.06-6.35-.19C3.88,137.28,31.47,142,65.17,142Z"/><path class="cls-61" d="M113.69,136.55c-1.12,6.36-3.54,11.24-5.41,10.92s-2.48-5.76-1.35-12.12,3.54-11.24,5.41-10.91S114.82,130.19,113.69,136.55Z"/><path class="cls-62" d="M108.28,147.47c.72.12,1.51-.52,2.29-1.72,1.42-10.2.56-15.93-.81-19.14a28.22,28.22,0,0,0-2.83,8.74C105.8,141.71,106.41,147.13,108.28,147.47Z"/><path class="cls-63" d="M24.42,135.35c1.12,6.36.51,11.78-1.36,12.12s-4.29-4.56-5.41-10.92-.52-11.78,1.35-12.11S23.3,129,24.42,135.35Z"/><path class="cls-64" d="M23.06,147.47c.72-.13,1.25-1,1.57-2.4-2.15-10.07-4.92-15.16-7.3-17.71a28.24,28.24,0,0,0,.32,9.19C18.77,142.91,21.2,147.79,23.06,147.47Z"/><path class="cls-65" d="M97.33,107.26c0,6.7-14.43,5.34-32.24,5.34S32.86,114,32.86,107.26,47.29,95.13,65.09,95.13,97.33,100.56,97.33,107.26Z"/><path class="cls-66" d="M97.33,106.06c0,3.35-3.61,4.68-9.44,5.18s-13.89.16-22.8.16-17,.34-22.79-.16-9.44-1.83-9.44-5.18-9-6.39-3.14-8.58,26.47-3.55,35.37-3.55,29.55,1.35,35.38,3.55S97.33,102.71,97.33,106.06Z"/><path class="cls-67" d="M69.42,79.32A2.4,2.4,0,0,1,67,81.72H60.72a2.4,2.4,0,0,1-2.41-2.4h0a2.41,2.41,0,0,1,2.41-2.41H67a2.41,2.41,0,0,1,2.41,2.41Z"/><path class="cls-68" d="M60.72,77.06H67a2.4,2.4,0,0,1,2.4,2.33s0,0,0-.07A2.41,2.41,0,0,0,67,76.91H60.72a2.41,2.41,0,0,0-2.41,2.41s0,.05,0,.07A2.41,2.41,0,0,1,60.72,77.06Z"/><path class="cls-69" d="M63.21,78.4a.62.62,0,0,0,1.23,0V74.82H63.21Z"/><path class="cls-70" d="M12.71,112.92c0,1.7,2.47,3.08,5.52,3.08s5.53-1.38,5.53-3.08-2.47-3.08-5.53-3.08S12.71,111.22,12.71,112.92Z"/><path class="cls-71" d="M104.67,112.92c0,1.7,2.48,3.08,5.53,3.08s5.52-1.38,5.52-3.08-2.47-3.08-5.52-3.08S104.67,111.22,104.67,112.92Z"/></g></g></svg>