<svg xmlns="http://www.w3.org/2000/svg" xmlns:xlink="http://www.w3.org/1999/xlink" viewBox="0 0 120.37 99.3"><defs><style>.cls-1{fill:url(#linear-gradient);}.cls-2{fill:url(#linear-gradient-2);}.cls-3{fill:url(#linear-gradient-3);}.cls-4{fill:url(#linear-gradient-4);}.cls-5{fill:url(#linear-gradient-5);}.cls-6{fill:url(#linear-gradient-6);}.cls-7{fill:url(#linear-gradient-7);}.cls-8{fill:url(#linear-gradient-8);}.cls-9{fill:url(#linear-gradient-9);}.cls-10{fill:url(#linear-gradient-10);}.cls-11{fill:#61696e;}.cls-12{fill:#ddecf3;}.cls-13{fill:url(#linear-gradient-11);}.cls-14{fill:url(#linear-gradient-12);}.cls-15{fill:url(#radial-gradient);}.cls-16{fill:url(#radial-gradient-2);}.cls-17{fill:url(#radial-gradient-3);}.cls-18{fill:url(#radial-gradient-4);}.cls-19{fill:url(#radial-gradient-5);}.cls-20{fill:url(#radial-gradient-6);}.cls-21{fill:url(#radial-gradient-7);}.cls-22{fill:url(#radial-gradient-8);}.cls-23{fill:url(#radial-gradient-9);}.cls-24{fill:url(#radial-gradient-10);}</style><linearGradient id="linear-gradient" x1="85.04" y1="532.2" x2="91.79" y2="532.2" gradientTransform="translate(-168.9 -901.08) scale(2.59 1.8)" gradientUnits="userSpaceOnUse"><stop offset="0.01" stop-color="#fff"/><stop offset="0.27" stop-color="#9ca2a8"/><stop offset="0.84" stop-color="#fff"/><stop offset="1" stop-color="#adb0b6"/></linearGradient><linearGradient id="linear-gradient-2" x1="-3222.45" y1="-947.17" x2="-3222.71" y2="-960.92" gradientTransform="translate(2668.48 862.68) scale(0.8)" gradientUnits="userSpaceOnUse"><stop offset="0" stop-color="#d0e299"/><stop offset="0.28" stop-color="#99d286"/><stop offset="0.93" stop-color="#0faa56"/><stop offset="1" stop-color="#00a651"/></linearGradient><linearGradient id="linear-gradient-3" x1="-2270.46" y1="-545.5" x2="-2270.72" y2="-559.25" gradientTransform="matrix(-0.53, 0, 0, 0.33, -1131.25, 278.94)" xlink:href="#linear-gradient-2"/><linearGradient id="linear-gradient-4" x1="-2976.63" y1="-1116.02" x2="-2976.89" y2="-1129.78" gradientTransform="translate(6966.65 2367.87) scale(2.32 2.03)" xlink:href="#linear-gradient-2"/><linearGradient id="linear-gradient-5" x1="-2641.28" y1="-956.72" x2="-2641.55" y2="-970.47" gradientTransform="matrix(-1.54, 0, 0, 0.83, -4001.86, 896.89)" xlink:href="#linear-gradient-2"/><linearGradient id="linear-gradient-6" x1="-3123.9" y1="-555.45" x2="-3123.9" y2="-596.17" gradientTransform="translate(2044.64 455.49) scale(0.64)" xlink:href="#linear-gradient-2"/><linearGradient id="linear-gradient-7" x1="-1902.67" y1="-214.27" x2="-1902.67" y2="-255" gradientTransform="matrix(-0.43, 0, 0, 0.33, -781.42, 168.26)" xlink:href="#linear-gradient-2"/><linearGradient id="linear-gradient-8" x1="-3270.4" y1="445.68" x2="-3270.4" y2="404.95" gradientTransform="translate(1643.23 17.9) scale(0.48 0.17)" xlink:href="#linear-gradient-2"/><linearGradient id="linear-gradient-9" x1="-1687.01" y1="1760.12" x2="-1687.01" y2="1719.39" gradientTransform="matrix(-0.32, 0, 0, 0.08, -470.93, -55.77)" xlink:href="#linear-gradient-2"/><linearGradient id="linear-gradient-10" x1="210.76" y1="245.33" x2="243.66" y2="215.24" gradientTransform="translate(72.05 -678.12) rotate(45) scale(2.2)" gradientUnits="userSpaceOnUse"><stop offset="0.01" stop-color="#30647a"/><stop offset="0.42" stop-color="#6dabd0"/><stop offset="1" stop-color="#30647a"/></linearGradient><linearGradient id="linear-gradient-11" x1="-3062.64" y1="924.48" x2="-3062.64" y2="894.69" gradientTransform="translate(-6220.08 2020.01) rotate(179.03) scale(2.07)" gradientUnits="userSpaceOnUse"><stop offset="0.01" stop-color="#8cd3df"/><stop offset="1" stop-color="#00afd9"/></linearGradient><linearGradient id="linear-gradient-12" x1="-3033.93" y1="924.48" x2="-3033.93" y2="894.69" xlink:href="#linear-gradient-11"/><radialGradient id="radial-gradient" cx="241.66" cy="189.32" r="16" gradientTransform="translate(-21.86 -866.43) rotate(45) scale(3.08)" gradientUnits="userSpaceOnUse"><stop offset="0" stop-color="#e1f3fc"/><stop offset="0.15" stop-color="#d8edf9"/><stop offset="0.39" stop-color="#bfddf2"/><stop offset="0.69" stop-color="#96c2e6"/><stop offset="1" stop-color="#66a3d8"/></radialGradient><radialGradient id="radial-gradient-2" cx="241.66" cy="189.32" r="16" xlink:href="#radial-gradient"/><radialGradient id="radial-gradient-3" cx="241.66" cy="189.32" r="15.99" xlink:href="#radial-gradient"/><radialGradient id="radial-gradient-4" cx="227.57" cy="202.63" r="20.27" xlink:href="#radial-gradient"/><radialGradient id="radial-gradient-5" cx="227.57" cy="202.63" r="20.27" xlink:href="#radial-gradient"/><radialGradient id="radial-gradient-6" cx="227.57" cy="202.63" r="20.26" xlink:href="#radial-gradient"/><radialGradient id="radial-gradient-7" cx="221.69" cy="206.35" r="30.96" xlink:href="#radial-gradient"/><radialGradient id="radial-gradient-8" cx="221.69" cy="206.35" r="30.99" xlink:href="#radial-gradient"/><radialGradient id="radial-gradient-9" cx="235.77" cy="188.7" r="22.67" xlink:href="#radial-gradient"/><radialGradient id="radial-gradient-10" cx="235.77" cy="188.7" r="22.66" xlink:href="#radial-gradient"/></defs><g id="Layer_2" data-name="Layer 2"><g id="Layer_1-2" data-name="Layer 1"><path class="cls-1" d="M51.06,16V94.41c0,1.09,3.92,2,8.75,2s8.74-.9,8.74-2V16Z"/><path class="cls-2" d="M82.33,96.27a17.1,17.1,0,0,0-.25-4c0,.45,0,1-.06,1.4a3.14,3.14,0,0,1-.47,1.22,9.76,9.76,0,0,0-.15-1.66c-.28-1.44-.63-2.79-.89-4.23a9,9,0,0,0,.1,2.69,12.61,12.61,0,0,1,0,2.12c0,.1-.1.2-.16.3a3.17,3.17,0,0,0-.34-.59,1,1,0,0,0-.1-.17,8.15,8.15,0,0,0,0-1.12,2.65,2.65,0,0,1-.37.57,5.25,5.25,0,0,1-.49-1.12,14.36,14.36,0,0,0,0,1.63c-.14.15-.28.28-.42.42a6.35,6.35,0,0,1-.25-1.16c0,.31.06.79.11,1.3a1.24,1.24,0,0,0-.47.7,6.09,6.09,0,0,1,0-2.33A4.61,4.61,0,0,0,78.35,90c-.27.91-.61,1.78-.92,2.67,0-.12,0-.23-.06-.37,0,.19,0,.39,0,.58l-.21.64A4.93,4.93,0,0,0,77,94.71a1,1,0,0,0-.08.15.18.18,0,0,0,0-.07,8.15,8.15,0,0,0-.14-1.51c-.27-1.44-.62-2.8-.89-4.23a9,9,0,0,0,.1,2.69,11.81,11.81,0,0,1,0,2.22c0,.18,0,.36,0,.53v0a2,2,0,0,0-.43-1,7.52,7.52,0,0,1-.94-1.84,9.13,9.13,0,0,0,.14,2.18,13.34,13.34,0,0,1,.47,1.81c-.2-.32-.39-.7-.6-1a6,6,0,0,1-.63-2.07c0,.58.19,1.71.19,2.52l-.14.41c0,.32.1.43.06.78-.08.81-.14,0-.62,1.6a1.09,1.09,0,0,1,1.51,0c.17.12.45-.06.53.4s.85,0,1.07,0a4.25,4.25,0,0,0,1.13-.28.34.34,0,0,0,.14-.22c.42.11,1,.26,1.08-.09a.47.47,0,0,1,.08-.14,1.56,1.56,0,0,1,.67.29c.17.11.46-.06.54.4s.84,0,1.06,0A4.07,4.07,0,0,0,82.33,98c.26-.14.3-1.14.65-2.17C82.87,95.94,82.25,96.62,82.33,96.27Zm-2.75-1L79.45,95l.15-.32c.05.13.08.26.12.4Z"/><path class="cls-3" d="M75.31,96.9c.24.43.26.83.44.89a4.2,4.2,0,0,0,.75.12c.14,0,.63.23.7,0s.24-.12.36-.16a1.26,1.26,0,0,1,.45-.12.15.15,0,0,1,0,.06c.07.14.45.07.71,0,0,0,.07.08.1.09a4.47,4.47,0,0,0,.76.12c.14,0,.63.23.7,0s.24-.11.36-.16a1.07,1.07,0,0,1,1,0c-.32-.66-.37-.32-.42-.66,0-.14.07-.19,0-.32l-.09-.16c0-.34.13-.8.13-1a1.94,1.94,0,0,1-.42.85l-.4.42a4.3,4.3,0,0,1,.31-.74,2.25,2.25,0,0,0,.09-.9,2.44,2.44,0,0,1-.62.75.84.84,0,0,0-.28.41v0a1.43,1.43,0,0,0,0-.22,3.47,3.47,0,0,1,0-.91,2.46,2.46,0,0,0,.07-1.11c-.18.59-.41,1.15-.59,1.74a2.12,2.12,0,0,0-.1.62l0,0,0-.07a1.14,1.14,0,0,0-.13-.47,2.15,2.15,0,0,0-.14-.26v-.24a.83.83,0,0,0,0,.15c-.21-.37-.44-.72-.62-1.1-.17.24,0,.69.09.92a1.57,1.57,0,0,1,0,1c0-.14-.19-.22-.31-.29a4.88,4.88,0,0,0,.07-.53,1.48,1.48,0,0,1-.17.47l-.28-.17a2.91,2.91,0,0,0,0-.67,1.77,1.77,0,0,1-.34.46,1.75,1.75,0,0,1-.24-.23,2.32,2.32,0,0,0,0,.46.23.23,0,0,0-.07.07,1.05,1.05,0,0,0-.23.24.64.64,0,0,1-.1-.13,3.21,3.21,0,0,1,0-.87,2.41,2.41,0,0,0,.07-1.1c-.18.59-.41,1.15-.59,1.74a1.9,1.9,0,0,0-.1.68c-.12-.16-.27-.25-.32-.5a5.49,5.49,0,0,1,0-.58,4.41,4.41,0,0,0-.18,1.64C75.8,97.21,75.39,96.93,75.31,96.9Zm2.17-.31a.89.89,0,0,1,.08-.17l.1.14-.09.09Z"/><path class="cls-4" d="M71.69,93.46c0-4.88.17-5.61-.74-10,0,1.13,0,2.45-.16,3.53A7.48,7.48,0,0,1,69.41,90,18.81,18.81,0,0,0,69,85.84c-.78-3.62-1.8-7-2.57-10.65-.55,1.76.08,5,.29,6.77a26,26,0,0,1,.15,5.35c-.14.26-.3.51-.46.75a7.62,7.62,0,0,0-1-1.5c-.09-.13-.19-.28-.3-.42a18.29,18.29,0,0,0,.09-2.81,7,7,0,0,1-1,1.43,11.54,11.54,0,0,1-1.43-2.83,30.54,30.54,0,0,0,.12,4.12l-1.2,1a13.61,13.61,0,0,1-.74-2.92c0,.8.17,2,.32,3.27a3.15,3.15,0,0,0-1.36,1.77,13.22,13.22,0,0,1,0-5.87c.28-1.46,1.14-4.17.38-5.65-.79,2.3-1.76,4.48-2.66,6.73-.06-.3-.11-.59-.18-.93,0,.47,0,1,0,1.48-.21.53-.42,1.06-.62,1.6a10.2,10.2,0,0,0-.54,2.93c-.08.13-.16.25-.22.37-.06,0-.1-.1-.15-.15a18.1,18.1,0,0,0-.42-3.82c-.78-3.62-1.79-7-2.56-10.65-.55,1.77.07,5,.29,6.77a27,27,0,0,1,.12,5.6A12.67,12.67,0,0,0,53.09,89a.34.34,0,0,1,0,.1,4.92,4.92,0,0,0-1.24-2.44A17.84,17.84,0,0,1,49.13,82a21.16,21.16,0,0,0,.41,5.51c.33,1.36,1.23,3.1,1.35,4.55-.58-.81-1.13-1.76-1.72-2.58a13.82,13.82,0,0,1-1.84-5.24c0,1.46.56,4.33.56,6.37l-.4,1c-.13.81.28,1.1.18,2-.23,2-.4,0-1.81,4,1.45-1.15,2.86-.92,4.36,0,.51.31,1.3-.14,1.55,1,.3,1.45,2.44,0,3.07,0A13.59,13.59,0,0,0,58.1,98a.93.93,0,0,0,.43-.56c1.2.28,2.81.68,3.11-.21a1.23,1.23,0,0,1,.22-.36,5,5,0,0,1,2,.72c.49.3,1.3-.13,1.55,1,.3,1.46,2.43,0,3.07,0a14.08,14.08,0,0,0,3.26-.7c.76-.34.86-2.86,1.88-5.47C73.23,92.62,71.45,94.34,71.69,93.46Zm-8-2.57c-.12-.2-.25-.38-.37-.57.15-.27.29-.55.45-.83.12.34.23.68.34,1C64,90.64,63.87,90.75,63.73,90.89Z"/><path class="cls-5" d="M51.43,95c.67,1.07.74,2.1,1.24,2.25a14.57,14.57,0,0,0,2.17.29c.41,0,1.83.59,2,0s.69-.29,1-.41a3.89,3.89,0,0,1,1.29-.3.32.32,0,0,1,.14.14c.2.36,1.28.2,2.06.09a.66.66,0,0,0,.29.24,15.69,15.69,0,0,0,2.16.28c.42,0,1.84.59,2,0s.69-.29,1-.42a3.53,3.53,0,0,1,2.9,0c-.93-1.67-1.06-.82-1.21-1.66-.06-.36.21-.48.12-.81l-.26-.41c0-.85.37-2,.37-2.62a4.66,4.66,0,0,1-1.22,2.15c-.4.33-.77.72-1.14,1a9.36,9.36,0,0,1,.9-1.86,5.36,5.36,0,0,0,.25-2.27,7.09,7.09,0,0,1-1.78,1.91,2,2,0,0,0-.83,1v0a2.65,2.65,0,0,0-.1-.55,7.13,7.13,0,0,1,.08-2.3c.15-.73.56-2.06.2-2.79-.51,1.49-1.19,2.9-1.71,4.38a5.07,5.07,0,0,0-.28,1.56L63.1,94,63,93.85a2.75,2.75,0,0,0-.37-1.2c-.12-.23-.27-.45-.4-.66s0-.42,0-.61a3.4,3.4,0,0,1-.12.38c-.59-.92-1.24-1.82-1.76-2.76-.5.61.06,1.72.25,2.32a3.42,3.42,0,0,1,0,2.4c-.12-.33-.54-.54-.9-.72a8.83,8.83,0,0,0,.21-1.33,4.06,4.06,0,0,1-.49,1.19l-.81-.44a6.55,6.55,0,0,0,.1-1.68,5.08,5.08,0,0,1-.95,1.16,3.17,3.17,0,0,1-.7-.59A4.76,4.76,0,0,0,57,92.46l-.2.18a3.71,3.71,0,0,0-.65.61c-.11-.1-.21-.21-.3-.31a6.85,6.85,0,0,1,.1-2.2c.14-.71.56-2,.19-2.77-.5,1.48-1.18,2.89-1.7,4.37a4.89,4.89,0,0,0-.29,1.72c-.35-.4-.77-.63-.91-1.26a8.61,8.61,0,0,1-.11-1.45,10,10,0,0,0-.49,4.12C52.83,95.83,51.65,95.13,51.43,95Zm6.24-.78a3.42,3.42,0,0,1,.23-.42l.29.33a1.88,1.88,0,0,1-.25.24C57.85,94.35,57.76,94.31,57.67,94.26Z"/><path class="cls-6" d="M45.15,90.06c0-2,.37-4.83.37-6.26a19,19,0,0,1-1.19,5.14c-.38.82-.74,1.75-1.11,2.54A42.07,42.07,0,0,1,44.09,87a30.78,30.78,0,0,0,.26-5.42,20.85,20.85,0,0,1-1.74,4.55,5.92,5.92,0,0,0-.8,2.4,38.07,38.07,0,0,1,0-6.92c.14-1.73.55-4.93.19-6.66-.49,3.55-1.15,6.91-1.65,10.47a28.37,28.37,0,0,0-.29,4.1,9.58,9.58,0,0,1-.89-3c-.1-1.06-.06-2.36-.09-3.47a55.92,55.92,0,0,0-.49,9.87c.16.87-1-.83-1.21-1,.66,2.56.73,5,1.22,5.38a6.41,6.41,0,0,0,2.1.69c.41,0,1.78,1.41,2,0,.16-1.14.68-.7,1-1,1-.89,1.87-1.1,2.81,0-.9-4-1-2-1.16-4-.07-.85.2-1.14.11-1.94Z"/><path class="cls-7" d="M40.05,94.19c0-1-.25-2.45-.25-3.17a7.88,7.88,0,0,0,.81,2.61c.25.41.5.88.75,1.28a16.64,16.64,0,0,0-.59-2.26,11.75,11.75,0,0,1-.18-2.75,9.21,9.21,0,0,0,1.18,2.31,2.58,2.58,0,0,1,.54,1.21,15.25,15.25,0,0,0,0-3.51,11.26,11.26,0,0,1-.13-3.38c.33,1.81.78,3.51,1.12,5.32a10.65,10.65,0,0,1,.19,2.08,4,4,0,0,0,.6-1.53c.07-.53,0-1.19.06-1.76a21.32,21.32,0,0,1,.33,5c-.11.45.67-.41.82-.51-.45,1.29-.49,2.55-.82,2.73a5.47,5.47,0,0,1-1.42.35c-.28,0-1.21.71-1.34,0s-.46-.36-.67-.51a1.37,1.37,0,0,0-1.9,0c.61-2,.69-1,.78-2,0-.44-.14-.59-.07-1Z"/><path class="cls-8" d="M77.5,89.07c0-.52.27-1.24.27-1.62a2.8,2.8,0,0,1-.89,1.33c-.28.21-.56.45-.83.65.06-.36.49-.81.66-1.15a2.84,2.84,0,0,0,.19-1.39,5,5,0,0,1-1.3,1.17c-.22.16-.53.31-.6.62a3.47,3.47,0,0,1,0-1.78c.1-.45.4-1.27.14-1.72-.37.92-.86,1.78-1.24,2.69a2.75,2.75,0,0,0-.21,1.06c-.25-.24-.55-.39-.66-.77a5.26,5.26,0,0,1-.08-.89,5.37,5.37,0,0,0-.36,2.54c.12.22-.74-.22-.9-.27.49.66.54,1.3.9,1.39a12.74,12.74,0,0,0,1.58.17c.3,0,1.33.37,1.48,0s.5-.18.74-.26a3,3,0,0,1,2.11,0c-.68-1-.77-.51-.87-1,0-.21.15-.29.08-.5Z"/><path class="cls-9" d="M73.69,90.13c0-.26-.19-.63-.19-.82a1.46,1.46,0,0,0,.6.68c.19.1.37.23.56.33,0-.19-.33-.41-.44-.59a1.07,1.07,0,0,1-.13-.7,3.39,3.39,0,0,0,.88.59c.14.08.35.16.4.31a1.33,1.33,0,0,0,0-.9c-.06-.23-.27-.64-.09-.87.25.46.58.9.84,1.36a1.06,1.06,0,0,1,.14.54c.17-.12.38-.19.45-.39a2.3,2.3,0,0,0,0-.45A2,2,0,0,1,77,90.5c-.08.12.5-.1.61-.13-.33.34-.36.66-.61.71s-.85.09-1.06.09-.91.18-1,0-.34-.09-.51-.13A2.63,2.63,0,0,0,73,91c.46-.52.52-.25.59-.51s-.1-.15-.06-.26Z"/><path class="cls-10" d="M106.1,2.17h0L12.64,3.77a5.66,5.66,0,0,0-5.4,4.66L.07,58.81a5.68,5.68,0,0,0,1.05,4.38A4.56,4.56,0,0,0,4.92,65l110.72-2.08A4.56,4.56,0,0,0,119.36,61a5.84,5.84,0,0,0,.91-4.42L111.6,6.65A5.63,5.63,0,0,0,106.1,2.17Z"/><path class="cls-11" d="M105.93,0h0L12.82,1.58A5.66,5.66,0,0,0,7.44,6.22l-7.12,50a5.62,5.62,0,0,0,1.05,4.35,4.58,4.58,0,0,0,3.78,1.79l110.26-2.06a4.57,4.57,0,0,0,3.69-1.93A5.66,5.66,0,0,0,120,54L111.41,4.44A5.61,5.61,0,0,0,105.93,0Z"/><path class="cls-12" d="M12.72,3.13A3.88,3.88,0,0,0,9,6.3l-7,50c-.33,2.32,1.15,4.2,3.3,4.16L115.22,58.4c2.13,0,3.54-2,3.14-4.28L109.89,4.58a3.87,3.87,0,0,0-3.82-3Z"/><polygon class="cls-13" points="59.63 5.43 109.89 4.58 118.36 54.12 60.42 55.2 59.63 5.43"/><polygon class="cls-14" points="8.98 6.3 57.07 5.48 57.46 55.26 1.99 56.29 8.98 6.3"/><polygon class="cls-15" points="59.63 5.43 60.42 55.2 66.94 55.08 92.85 4.87 59.63 5.43"/><polygon class="cls-16" points="104.27 4.67 79.37 54.85 83.53 54.77 108.1 4.61 104.27 4.67"/><polygon class="cls-17" points="111.85 16.09 93.63 54.59 118.36 54.12 111.85 16.09"/><polygon class="cls-18" points="32.16 5.91 2.3 54.04 1.99 56.29 5.08 56.22 35.99 5.84 32.16 5.91"/><polygon class="cls-19" points="8.98 6.3 5.75 29.45 20.69 6.1 8.98 6.3"/><polygon class="cls-20" points="57.46 55.26 57.07 5.48 45.31 5.68 15.22 56.04 57.46 55.26"/><polygon class="cls-21" points="20.69 6.1 5.75 29.45 2.3 54.04 32.16 5.91 20.69 6.1"/><polygon class="cls-22" points="45.31 5.68 35.99 5.84 5.08 56.22 15.22 56.04 45.31 5.68"/><polygon class="cls-23" points="92.85 4.87 66.94 55.08 79.37 54.85 104.27 4.67 92.85 4.87"/><polygon class="cls-24" points="109.89 4.58 108.1 4.61 83.53 54.77 93.63 54.59 111.85 16.09 109.89 4.58"/></g></g></svg>