<svg xmlns="http://www.w3.org/2000/svg" xmlns:xlink="http://www.w3.org/1999/xlink" viewBox="0 0 74.7 156.56"><defs><style>.cls-1{fill:url(#radial-gradient);}.cls-2{fill:url(#linear-gradient);}.cls-3{fill:#797b7d;}.cls-4{fill:#d9dbdc;}.cls-5{fill:url(#linear-gradient-2);}.cls-6{fill:url(#linear-gradient-3);}.cls-7{fill:url(#linear-gradient-4);}.cls-8{fill:url(#linear-gradient-5);}.cls-9{fill:url(#linear-gradient-6);}.cls-10{fill:url(#linear-gradient-7);}.cls-11{fill:url(#linear-gradient-8);}.cls-12{fill:url(#linear-gradient-9);}.cls-13{fill:url(#linear-gradient-10);}.cls-14{fill:#f5f5f6;}.cls-15{fill:url(#linear-gradient-11);}.cls-16{fill:url(#linear-gradient-12);}</style><radialGradient id="radial-gradient" cx="3375.67" cy="1388.57" fy="1375.439195193982" r="40.88" gradientTransform="translate(-3046.27 -4.92) scale(0.91 0.11)" gradientUnits="userSpaceOnUse"><stop offset="0" stop-color="#adaab3"/><stop offset="0.27" stop-color="#cdcbd1"/><stop offset="0.56" stop-color="#e8e8ea"/><stop offset="0.81" stop-color="#f9f9fa"/><stop offset="1" stop-color="#fff"/></radialGradient><linearGradient id="linear-gradient" x1="27.26" y1="3.72" x2="48.11" y2="3.72" gradientUnits="userSpaceOnUse"><stop offset="0" stop-color="#747880"/><stop offset="0.06" stop-color="#888b92"/><stop offset="0.19" stop-color="#afb1b6"/><stop offset="0.3" stop-color="#cccdd0"/><stop offset="0.41" stop-color="#dddedf"/><stop offset="0.48" stop-color="#e3e4e5"/><stop offset="0.62" stop-color="#e0e1e2"/><stop offset="0.72" stop-color="#d7d8da"/><stop offset="0.8" stop-color="#c7c9cc"/><stop offset="0.88" stop-color="#b1b3b7"/><stop offset="0.95" stop-color="#95989d"/><stop offset="1" stop-color="#7e8188"/></linearGradient><linearGradient id="linear-gradient-2" x1="-6.12" y1="78.67" x2="76.3" y2="77.01" gradientUnits="userSpaceOnUse"><stop offset="0" stop-color="#f9d307"/><stop offset="0.15" stop-color="#f5c011"/><stop offset="0.41" stop-color="#f0a51f"/><stop offset="1" stop-color="#efb91d"/></linearGradient><linearGradient id="linear-gradient-3" x1="0.4" y1="136.96" x2="83.25" y2="136.96" gradientUnits="userSpaceOnUse"><stop offset="0.01" stop-color="#231f20"/><stop offset="0.66" stop-color="#5c5c5e"/><stop offset="1" stop-color="#757779"/></linearGradient><linearGradient id="linear-gradient-4" x1="0.4" y1="18.61" x2="83.25" y2="18.61" xlink:href="#linear-gradient-3"/><linearGradient id="linear-gradient-5" x1="38.35" y1="77.56" x2="62.89" y2="77.56" gradientUnits="userSpaceOnUse"><stop offset="0.01" stop-color="#faf3c2"/><stop offset="0.36" stop-color="#fbe4b1"/><stop offset="1" stop-color="#fdcd96"/></linearGradient><linearGradient id="linear-gradient-6" x1="10.07" y1="77.56" x2="23.17" y2="77.56" gradientUnits="userSpaceOnUse"><stop offset="0" stop-color="#f5eede"/><stop offset="0.61" stop-color="#f1d9ac"/><stop offset="1" stop-color="#efcd91"/></linearGradient><linearGradient id="linear-gradient-7" x1="1708.04" y1="-155.13" x2="1988.48" y2="-155.13" gradientTransform="translate(-395.9 173.47) scale(0.24)" gradientUnits="userSpaceOnUse"><stop offset="0.01" stop-color="#96999b"/><stop offset="0.43" stop-color="#adafb1"/><stop offset="1" stop-color="#c8cacb"/></linearGradient><linearGradient id="linear-gradient-8" x1="1677.61" y1="-155.13" x2="1906.67" y2="-155.13" gradientTransform="translate(-395.9 173.47) scale(0.24)" gradientUnits="userSpaceOnUse"><stop offset="0.01" stop-color="#8e9093"/><stop offset="0.21" stop-color="#87888b"/><stop offset="1" stop-color="#6d6e70"/></linearGradient><linearGradient id="linear-gradient-9" x1="1707.01" y1="-254.06" x2="1988.08" y2="-254.06" gradientTransform="translate(-401.47 79.87) scale(0.24)" xlink:href="#linear-gradient-7"/><linearGradient id="linear-gradient-10" x1="1681.37" y1="-254.29" x2="1910.4" y2="-254.29" gradientTransform="translate(-401.47 79.87) scale(0.24)" xlink:href="#linear-gradient-8"/><linearGradient id="linear-gradient-11" x1="237.66" y1="-608.07" x2="281.63" y2="-608.96" gradientTransform="translate(-257 765.94) scale(1.13)" gradientUnits="userSpaceOnUse"><stop offset="0" stop-color="#f9d307"/><stop offset="0.25" stop-color="#f1a019"/><stop offset="0.41" stop-color="#ec8523"/><stop offset="1" stop-color="#efb91d"/></linearGradient><linearGradient id="linear-gradient-12" x1="42.02" y1="80.06" x2="56.46" y2="80.06" gradientUnits="userSpaceOnUse"><stop offset="0.01" stop-color="#faf3c2"/><stop offset="0.57" stop-color="#fbd498"/><stop offset="1" stop-color="#fcc07d"/></linearGradient></defs><g id="Layer_2" data-name="Layer 2"><g id="Layer_1-2" data-name="Layer 1"><path class="cls-1" d="M74.7,151.93c0,2.56-16.72,4.63-37.35,4.63S0,154.49,0,151.93s16.72-4.65,37.35-4.65S74.7,149.36,74.7,151.93Z"/><path class="cls-2" d="M48.11,2.48A2.49,2.49,0,0,0,45.63,0H29.74a2.49,2.49,0,0,0-2.48,2.48v5H48.11Z"/><path class="cls-3" d="M46.49,2.89c0-2.34-1.33-1.95-3-2.07l-3,0s.42,0,.42,2.05V7h5.61Z"/><path class="cls-4" d="M31.64,2.86C31.59.91,31.85.8,31.85.8h0c-1.65,0-3-.28-3,2.06V7h2.78Z"/><rect class="cls-5" x="6.42" y="7.44" width="62.53" height="140.68" rx="7.44"/><path class="cls-6" d="M6.42,140.68a7.47,7.47,0,0,0,7.45,7.45H61.5A7.47,7.47,0,0,0,69,140.68V125.8H6.42Z"/><path class="cls-7" d="M69,14.89A7.47,7.47,0,0,0,61.5,7.44H13.87a7.47,7.47,0,0,0-7.45,7.45V29.78H69Z"/><rect class="cls-8" x="47.26" y="30.63" width="16.84" height="93.87"/><rect class="cls-9" x="11.27" y="30.63" width="8.32" height="93.87"/><path class="cls-10" d="M47.26,140.22c0,5.85-1.22,5.85-1.22,5.85h9.11c4.94,0,8.95,1.16,8.95-5.85V126.68H47.26Z"/><path class="cls-11" d="M11.27,140.22c0,7,4,5.85,8.94,5.85h0s-.62,0-.62-5.85V126.68H11.27Z"/><path class="cls-12" d="M64.1,16.11c0-7-4-5.86-8.95-6.2L46,10s1.26,0,1.26,6.15V28.44H64.1Z"/><path class="cls-13" d="M19.56,16c-.15-5.86.62-6.2.62-6.2h0c-4.93,0-8.94-.82-8.94,6.2l0,12.41h8.32Z"/><polygon class="cls-14" points="48.98 44.96 16.48 85.21 35.08 85 26.56 112.93 58.89 73.1 40.12 73.51 48.98 44.96"/><path class="cls-15" d="M18.2,84.3l17.92-.19-7.71,25.28L57.17,74l-18.08.39,8-25.84Z"/><path class="cls-16" d="M57.17,74l-9.91.21v12Z"/></g></g></svg>