<svg xmlns="http://www.w3.org/2000/svg" viewBox="0 0 650 534.32"><defs><style>.cls-1{fill:#96cdc6;}.cls-2{fill:#606060;}.cls-3{fill:#bee4e1;}.cls-4{fill:#ef4c48;}.cls-5{fill:#3e803d;}.cls-6{fill:#4f4f4f;}</style></defs><g id="Layer_2" data-name="Layer 2"><g id="Слой_1" data-name="Слой 1"><path class="cls-1" d="M618.76,44.17V420.54a12.91,12.91,0,0,1-12.93,12.88H44.14a12.87,12.87,0,0,1-12.88-12.88V44.17A12.92,12.92,0,0,1,44.14,31.23H605.83A13,13,0,0,1,618.76,44.17Z"/><path class="cls-2" d="M605.84,0H44.16A44.21,44.21,0,0,0,0,44.16V420.54a44.21,44.21,0,0,0,44.16,44.15H605.84A44.21,44.21,0,0,0,650,420.54V44.16A44.21,44.21,0,0,0,605.84,0Zm12.91,420.54a12.92,12.92,0,0,1-12.91,12.9H44.16a12.92,12.92,0,0,1-12.91-12.9V44.16A12.92,12.92,0,0,1,44.16,31.25H605.84a12.92,12.92,0,0,1,12.91,12.91Z"/><path class="cls-3" d="M412.26,31.23l59.38,0L253.39,433.42H44.14a12.87,12.87,0,0,1-12.88-12.88V347.23Z"/><circle class="cls-4" cx="536.8" cy="449.95" r="9.38"/><polygon class="cls-2" points="383.67 514.01 268.05 514.01 280.55 489.32 293.05 464.7 358.67 464.7 371.17 489.32 383.67 514.01"/><path class="cls-5" d="M411.8,534.32H244.61v-7.81a12.5,12.5,0,0,1,12.5-12.5H399.3a12.5,12.5,0,0,1,12.5,12.5Z"/><polygon class="cls-6" points="371.17 489.32 280.55 489.32 293.05 464.7 358.67 464.7 371.17 489.32"/></g></g></svg>