<svg xmlns="http://www.w3.org/2000/svg" xmlns:xlink="http://www.w3.org/1999/xlink" viewBox="0 0 124.69 175.38"><defs><style>.cls-1{fill:url(#linear-gradient);}.cls-2{fill:url(#linear-gradient-2);}.cls-3{fill:url(#linear-gradient-3);}.cls-4{fill:url(#linear-gradient-4);}.cls-5{fill:url(#linear-gradient-5);}.cls-6{fill:url(#linear-gradient-6);}.cls-7{fill:url(#linear-gradient-7);}.cls-8{fill:url(#linear-gradient-8);}.cls-9{fill:url(#linear-gradient-9);}.cls-10{fill:url(#linear-gradient-10);}.cls-11{fill:url(#linear-gradient-11);}.cls-12{fill:url(#linear-gradient-12);}.cls-13{fill:url(#linear-gradient-13);}.cls-14{fill:url(#linear-gradient-14);}.cls-15{fill:url(#linear-gradient-15);}.cls-16{fill:url(#linear-gradient-16);}.cls-17{fill:url(#linear-gradient-17);}.cls-18{fill:url(#linear-gradient-18);}</style><linearGradient id="linear-gradient" x1="1014.44" y1="-207.7" x2="1067.98" y2="-223" gradientTransform="translate(-242.55 92.18) scale(0.27)" gradientUnits="userSpaceOnUse"><stop offset="0.01" stop-color="#8e8c90"/><stop offset="0.59" stop-color="#b9b9bb"/><stop offset="1" stop-color="#d3d4d6"/></linearGradient><linearGradient id="linear-gradient-2" x1="1228.36" y1="-46.19" x2="1236.01" y2="-94.64" xlink:href="#linear-gradient"/><linearGradient id="linear-gradient-3" x1="1041.55" y1="89.69" x2="982.91" y2="36.15" gradientTransform="translate(-243.62 51.71) rotate(5.93) scale(0.27)" xlink:href="#linear-gradient"/><linearGradient id="linear-gradient-4" x1="1068.76" y1="-82.77" x2="1110.32" y2="-82.77" gradientTransform="translate(-242.55 92.18) scale(0.27)" gradientUnits="userSpaceOnUse"><stop offset="0.01" stop-color="#9d979c"/><stop offset="0.52" stop-color="#bbb9bc"/><stop offset="1" stop-color="#d3d4d6"/></linearGradient><linearGradient id="linear-gradient-5" x1="1140.27" y1="-52.14" x2="1052.7" y2="324.79" xlink:href="#linear-gradient"/><linearGradient id="linear-gradient-6" x1="1066.66" y1="-212.31" x2="1038.61" y2="-179.16" gradientTransform="translate(-242.55 92.18) scale(0.27)" gradientUnits="userSpaceOnUse"><stop offset="0.01" stop-color="#e2e3e4"/><stop offset="0.06" stop-color="#e4e5e6"/><stop offset="1" stop-color="#fff"/></linearGradient><linearGradient id="linear-gradient-7" x1="1216.8" y1="-49.12" x2="1229.55" y2="-120.52" xlink:href="#linear-gradient-6"/><linearGradient id="linear-gradient-8" x1="1010.29" y1="72.48" x2="977.14" y2="3.64" gradientTransform="translate(-243.62 51.71) rotate(5.93) scale(0.27)" xlink:href="#linear-gradient-6"/><linearGradient id="linear-gradient-9" x1="1074.99" y1="-87.31" x2="1104.14" y2="-87.31" xlink:href="#linear-gradient-6"/><linearGradient id="linear-gradient-10" x1="1084.69" y1="108.24" x2="1112.98" y2="108.24" xlink:href="#linear-gradient-6"/><linearGradient id="linear-gradient-11" x1="-3288.36" y1="-918.74" x2="-3288.68" y2="-935.46" gradientTransform="translate(2826.92 946.99) scale(0.84)" gradientUnits="userSpaceOnUse"><stop offset="0" stop-color="#d0e299"/><stop offset="0.28" stop-color="#99d286"/><stop offset="0.93" stop-color="#0faa56"/><stop offset="1" stop-color="#00a651"/></linearGradient><linearGradient id="linear-gradient-12" x1="-3023.95" y1="-821.06" x2="-3024.27" y2="-837.78" gradientTransform="matrix(-0.55, 0, 0, 0.34, -1601.95, 458.13)" xlink:href="#linear-gradient-11"/><linearGradient id="linear-gradient-13" x1="-3222.61" y1="-959.69" x2="-3222.93" y2="-976.41" gradientTransform="translate(7842.65 2208.35) scale(2.42 2.11)" xlink:href="#linear-gradient-11"/><linearGradient id="linear-gradient-14" x1="-3123.49" y1="-921.27" x2="-3123.81" y2="-937.99" gradientTransform="matrix(-1.6, 0, 0, 0.87, -4942.97, 975.64)" xlink:href="#linear-gradient-11"/><linearGradient id="linear-gradient-15" x1="-3126.14" y1="-581.7" x2="-3126.14" y2="-631.21" gradientTransform="translate(2125.65 563.31) scale(0.67)" xlink:href="#linear-gradient-11"/><linearGradient id="linear-gradient-16" x1="-2742.81" y1="-498.3" x2="-2742.81" y2="-547.82" gradientTransform="matrix(-0.45, 0, 0, 0.34, -1196.5, 343.88)" xlink:href="#linear-gradient-11"/><linearGradient id="linear-gradient-17" x1="-3149.17" y1="-353.49" x2="-3149.17" y2="-403" gradientTransform="translate(1647.38 227.91) scale(0.5 0.17)" xlink:href="#linear-gradient-11"/><linearGradient id="linear-gradient-18" x1="-2710.19" y1="-51.08" x2="-2710.19" y2="-100.6" gradientTransform="matrix(-0.34, 0, 0, 0.09, -837.97, 171.03)" xlink:href="#linear-gradient-11"/></defs><g id="Layer_2" data-name="Layer 2"><g id="Layer_1-2" data-name="Layer 1"><path class="cls-1" d="M51.26,62.12c2.76,2,4.52,1.5,3.92-1.19L42,2.05C41.36-.66,40.73-.68,40.56,2L37.67,47c-.17,2.66,1.95,6.5,4.71,8.54Z"/><path class="cls-2" d="M63.56,68.86c-3.15,1.75-3.48,3.65-.75,4.22L122.4,85.66c2.74.57,3.07,0,.73-1.3L83.6,62.45c-2.33-1.3-6.81-.93-9.95.82Z"/><path class="cls-3" d="M49.63,74c.45-3.53-.89-4.9-3-3L1.39,111.48c-2.07,1.87-1.79,2.46.62,1.33l41-19c2.42-1.12,4.76-4.92,5.21-8.45Z"/><path class="cls-4" d="M60.94,69.6a5.67,5.67,0,1,1-5.67-5.67A5.67,5.67,0,0,1,60.94,69.6Z"/><polygon class="cls-5" points="48.97 166.62 63.46 166.62 57.16 76.53 53.38 77.16 48.97 166.62"/><path class="cls-6" d="M52.26,60.76a5.79,5.79,0,0,0,1.28.75,1.81,1.81,0,0,0,0-.22L41.8,9c-.16,2.53-.4,6.25-.66,10.37,3,13.32,7.45,33.2,8.91,39.72Z"/><path class="cls-7" d="M74.47,67.74c2.89-1.6,6.7-1.72,8.31-.82l25.2,14,8.71,1.83L82.78,63.93c-1.61-.9-5.42-.78-8.31.82h0L64.38,70.34a5.77,5.77,0,0,0-1.41,1l.19.07,3.38.71,7.93-4.4Z"/><path class="cls-8" d="M45.62,72.33l-.18.11L4.91,108.72l6.27-2.91,34-30.39.18-.12a4.18,4.18,0,0,1,0,.56c.16-1.21.26-2.07.27-2.09A6.07,6.07,0,0,0,45.62,72.33Z"/><path class="cls-9" d="M51.29,69.6a4.08,4.08,0,0,0,.3,1.49,4,4,0,0,1,7.36,0,4.08,4.08,0,0,0,.3-1.49,4,4,0,0,0-8,0Z"/><path class="cls-10" d="M55.58,78.51l-.56.1c0,.85-.48,11.37-1.08,25.29,1.53,25.34,3.88,49.88,4.56,61h3.16C61.46,161.52,55.79,82.07,55.58,78.51Z"/><path class="cls-11" d="M80.36,172.2a21,21,0,0,0-.32-5c0,.56,0,1.22-.07,1.77a3.93,3.93,0,0,1-.6,1.54,11.71,11.71,0,0,0-.19-2.1c-.35-1.82-.79-3.54-1.13-5.35a11.75,11.75,0,0,0,.13,3.4,15.22,15.22,0,0,1,.06,2.69,3.22,3.22,0,0,1-.2.37,4.66,4.66,0,0,0-.42-.75c-.05-.06-.09-.14-.14-.21a9.26,9.26,0,0,0,0-1.41,3.25,3.25,0,0,1-.46.72,6.62,6.62,0,0,1-.63-1.42,19.77,19.77,0,0,0,.06,2.07L76,169a7.32,7.32,0,0,1-.32-1.47c0,.4.07,1,.14,1.65a1.61,1.61,0,0,0-.6.89,7.91,7.91,0,0,1,0-3c.12-.74.5-2.1.17-2.83-.34,1.14-.78,2.24-1.17,3.37,0-.15,0-.29-.08-.47,0,.24,0,.49,0,.74l-.27.81a6,6,0,0,0-.24,1.48c0,.05-.06.12-.1.18l-.06-.08a9.75,9.75,0,0,0-.18-1.91c-.34-1.82-.79-3.54-1.12-5.36a11.83,11.83,0,0,0,.12,3.41,14.75,14.75,0,0,1,.06,2.81,5.23,5.23,0,0,0-.07.68v0a2.57,2.57,0,0,0-.55-1.22,9.72,9.72,0,0,1-1.19-2.33,12.41,12.41,0,0,0,.18,2.77,18.75,18.75,0,0,1,.6,2.29c-.26-.41-.5-.89-.76-1.3a7.94,7.94,0,0,1-.81-2.63c0,.74.25,2.17.25,3.2l-.17.51c-.06.41.12.56.07,1-.1,1-.17,0-.79,2a1.37,1.37,0,0,1,1.91,0c.22.15.58-.07.68.51s1.07,0,1.35,0a5.27,5.27,0,0,0,1.43-.36c.08,0,.14-.14.19-.27.52.13,1.23.34,1.36-.11a.61.61,0,0,1,.1-.18,2.14,2.14,0,0,1,.85.36c.22.15.57-.07.68.51s1.07,0,1.35,0a5.38,5.38,0,0,0,1.42-.36c.33-.17.38-1.44.83-2.75C81,171.79,80.26,172.65,80.36,172.2Zm-3.49-1.29-.16-.28.2-.42.15.51Z"/><path class="cls-12" d="M71.48,173c.3.54.33,1.06.55,1.13a5.4,5.4,0,0,0,1,.15c.18,0,.8.29.89,0s.3-.15.45-.21a1.51,1.51,0,0,1,.57-.15A.17.17,0,0,1,75,174c.08.17.56.09.9,0,0,.05.07.1.12.12a5.72,5.72,0,0,0,1,.14c.19,0,.81.3.9,0s.3-.14.44-.2a1.38,1.38,0,0,1,1.28,0c-.41-.84-.47-.41-.53-.83,0-.18.09-.25,0-.41l-.11-.21c0-.43.16-1,.16-1.31a2.5,2.5,0,0,1-.54,1.08c-.17.16-.33.36-.5.52a5,5,0,0,1,.4-.93,3.28,3.28,0,0,0,.11-1.14,3.59,3.59,0,0,1-.79,1c-.12.13-.31.25-.35.5v0c0-.09,0-.18,0-.28a3.72,3.72,0,0,1,0-1.15,3,3,0,0,0,.08-1.4c-.22.74-.52,1.45-.75,2.2a2.52,2.52,0,0,0-.12.79s0,0,0,0,0,0-.06-.08a1.43,1.43,0,0,0-.17-.6c-.05-.11-.11-.22-.17-.33s0-.21,0-.31c0,.07,0,.13,0,.19-.26-.46-.55-.91-.77-1.39-.22.31,0,.87.11,1.17a2,2,0,0,1,0,1.21c0-.17-.23-.28-.39-.37a5.45,5.45,0,0,0,.09-.67,2,2,0,0,1-.21.6l-.35-.21a4,4,0,0,0,0-.85,2.19,2.19,0,0,1-.42.59,1.76,1.76,0,0,1-.3-.31,2.81,2.81,0,0,0,0,.59.38.38,0,0,0-.09.09,1.66,1.66,0,0,0-.29.3,1,1,0,0,1-.12-.16,3.42,3.42,0,0,1,0-1.1,3,3,0,0,0,.08-1.4c-.22.75-.52,1.46-.74,2.2a2.49,2.49,0,0,0-.13.86,1.41,1.41,0,0,1-.41-.62c0-.23,0-.5,0-.74a5.86,5.86,0,0,0-.22,2.07C72.1,173.39,71.58,173,71.48,173Zm2.74-.39a1,1,0,0,1,.1-.21c0,.06.09.11.13.16a.65.65,0,0,1-.11.12Z"/><path class="cls-13" d="M72.63,168c-.06-6.18.2-7.1-.95-12.7a43.78,43.78,0,0,1-.2,4.47c-.27,1.93-1.07,2.64-1.74,3.88a24.54,24.54,0,0,0-.55-5.3c-1-4.58-2.28-8.9-3.25-13.48-.7,2.24.1,6.36.37,8.57a33.54,33.54,0,0,1,.18,6.77,9.41,9.41,0,0,1-.58,1,9.89,9.89,0,0,0-1.22-1.9c-.12-.17-.25-.35-.39-.53a22.84,22.84,0,0,0,.12-3.56A9,9,0,0,1,63.09,157a15,15,0,0,1-1.81-3.58,36.68,36.68,0,0,0,.16,5.21l-1.53,1.33a16.78,16.78,0,0,1-.93-3.69c0,1,.21,2.53.4,4.13a4.11,4.11,0,0,0-1.72,2.25,16.68,16.68,0,0,1-.06-7.44c.36-1.85,1.44-5.27.48-7.15-1,2.91-2.24,5.68-3.37,8.52-.08-.38-.14-.74-.23-1.18,0,.6,0,1.24,0,1.88-.26.67-.53,1.34-.78,2A12.7,12.7,0,0,0,53,163a3.64,3.64,0,0,0-.28.47l-.19-.2a23.61,23.61,0,0,0-.53-4.84c-1-4.58-2.26-8.91-3.24-13.48-.7,2.24.09,6.36.36,8.58a34.4,34.4,0,0,1,.16,7.08c-.1.59-.16,1.14-.2,1.71v.13a6.24,6.24,0,0,0-1.58-3.09,23,23,0,0,1-3.42-5.87,26.69,26.69,0,0,0,.51,7c.43,1.71,1.56,3.91,1.72,5.75-.73-1-1.44-2.23-2.18-3.27a17.62,17.62,0,0,1-2.34-6.62c0,1.85.72,5.47.72,8l-.5,1.29c-.18,1,.34,1.4.22,2.51-.29,2.59-.51-.05-2.29,5.1,1.83-1.44,3.62-1.16,5.52,0,.64.37,1.65-.19,2,1.27.38,1.85,3.09,0,3.88,0a17.32,17.32,0,0,0,4.12-.9A1.24,1.24,0,0,0,56,173c1.51.35,3.56.86,3.93-.27a1.74,1.74,0,0,1,.28-.45,6.28,6.28,0,0,1,2.46.91c.64.38,1.66-.17,2,1.29.38,1.84,3.08,0,3.88,0a17.5,17.5,0,0,0,4.13-.88c1-.44,1.1-3.62,2.39-6.92C74.58,166.93,72.32,169.11,72.63,168Zm-10.08-3.25c-.15-.25-.31-.48-.47-.72.18-.35.36-.69.56-1.05.16.42.3.85.43,1.28C62.9,164.42,62.73,164.56,62.55,164.74Z"/><path class="cls-14" d="M47,170c.86,1.36,1,2.67,1.58,2.85a18.89,18.89,0,0,0,2.74.37c.52,0,2.32.74,2.57,0,.22-.6.88-.37,1.31-.52a5.14,5.14,0,0,1,1.63-.38.42.42,0,0,1,.18.19c.25.45,1.62.24,2.6.1a.85.85,0,0,0,.37.3,17.63,17.63,0,0,0,2.74.36c.52,0,2.32.75,2.58,0,.2-.6.87-.37,1.29-.53a4.47,4.47,0,0,1,3.67,0c-1.18-2.11-1.34-1-1.53-2.09-.08-.46.26-.61.15-1l-.33-.52c0-1.08.47-2.56.47-3.32a6.06,6.06,0,0,1-1.54,2.73c-.51.42-1,.9-1.44,1.32a11.51,11.51,0,0,1,1.13-2.35,6.7,6.7,0,0,0,.32-2.87A9,9,0,0,1,65.2,167c-.36.32-.9.65-1,1.27v0a5.38,5.38,0,0,0-.12-.7,8.65,8.65,0,0,1,.09-2.91c.18-.92.71-2.61.25-3.53-.64,1.89-1.5,3.67-2.16,5.54a6.54,6.54,0,0,0-.36,2l-.11.09a1.7,1.7,0,0,0-.19-.19A3.4,3.4,0,0,0,61.1,167c-.15-.28-.33-.56-.5-.83,0-.26,0-.53,0-.78-.07.19-.1.33-.16.49-.75-1.16-1.57-2.3-2.22-3.5-.64.77.07,2.18.31,2.95a4.3,4.3,0,0,1,0,3c-.14-.43-.67-.69-1.14-.92a9.94,9.94,0,0,0,.28-1.69,5.25,5.25,0,0,1-.62,1.51l-1-.55a8.72,8.72,0,0,0,.11-2.13,6.28,6.28,0,0,1-1.2,1.47,4.69,4.69,0,0,1-.88-.75,5.72,5.72,0,0,0,.07,1.45l-.25.23a5,5,0,0,0-.82.78,4.67,4.67,0,0,1-.38-.4,8.47,8.47,0,0,1,.13-2.78c.17-.9.7-2.6.23-3.52-.63,1.89-1.49,3.67-2.14,5.54a5.68,5.68,0,0,0-.36,2.18c-.45-.51-1-.8-1.16-1.6a11,11,0,0,1-.14-1.83c-.75,2.3-.59,2.67-.63,5.21C48.75,171,47.26,170.1,47,170Zm7.91-1a2.65,2.65,0,0,1,.29-.52l.36.42a2.94,2.94,0,0,1-.31.3C55.11,169.12,55,169.07,54.88,169Z"/><path class="cls-15" d="M43.37,163.9c0-2.54.47-6.11.47-7.92a24,24,0,0,1-1.52,6.51c-.47,1-.93,2.2-1.4,3.21A55,55,0,0,1,42,160a38.28,38.28,0,0,0,.32-6.86,26.23,26.23,0,0,1-2.2,5.76,7.61,7.61,0,0,0-1,3,49.16,49.16,0,0,1,0-8.75c.17-2.19.69-6.24.23-8.44-.62,4.5-1.45,8.76-2.09,13.25a36.23,36.23,0,0,0-.36,5.21,12.31,12.31,0,0,1-1.12-3.8c-.13-1.35-.09-3-.12-4.4-.75,5.5-.58,6.41-.62,12.49.2,1.1-1.26-1.05-1.53-1.3.84,3.24.92,6.38,1.54,6.81a8.24,8.24,0,0,0,2.66.87c.51,0,2.25,1.79,2.51,0,.2-1.44.85-.89,1.26-1.26,1.22-1.13,2.38-1.4,3.56,0-1.15-5.07-1.29-2.48-1.48-5-.08-1.09.26-1.45.15-2.47Z"/><path class="cls-16" d="M36.92,169.13c0-1.29-.32-3.1-.32-4a9.81,9.81,0,0,0,1,3.31c.32.52.63,1.12,1,1.63a21.94,21.94,0,0,0-.75-2.87,15.26,15.26,0,0,1-.22-3.48,11.69,11.69,0,0,0,1.49,2.92,3.46,3.46,0,0,1,.69,1.53,19.88,19.88,0,0,0,0-4.43,14.66,14.66,0,0,1-.17-4.28c.43,2.28,1,4.44,1.42,6.72a13.9,13.9,0,0,1,.24,2.63,5.13,5.13,0,0,0,.76-1.92c.09-.68.06-1.52.08-2.23a27.51,27.51,0,0,1,.42,6.33c-.14.56.85-.53,1-.66-.56,1.64-.62,3.24-1,3.46a7,7,0,0,1-1.8.44c-.34,0-1.52.91-1.69,0-.14-.73-.58-.46-.85-.64a1.73,1.73,0,0,0-2.4,0c.77-2.57.87-1.25,1-2.55.05-.55-.18-.74-.09-1.25Z"/><path class="cls-17" d="M78.39,163.94c0-.66.35-1.58.35-2.05a3.57,3.57,0,0,1-1.13,1.69c-.35.26-.7.56-1,.82.07-.46.62-1,.83-1.46a3.6,3.6,0,0,0,.24-1.76A6.23,6.23,0,0,1,76,162.66c-.28.2-.67.4-.76.78a4.19,4.19,0,0,1,0-2.25c.12-.56.5-1.61.17-2.17-.47,1.16-1.08,2.25-1.57,3.41a3.38,3.38,0,0,0-.27,1.34c-.31-.32-.69-.5-.83-1a6,6,0,0,1-.1-1.14,6.82,6.82,0,0,0-.45,3.22c.15.28-.94-.27-1.15-.34.63.84.69,1.65,1.15,1.76a15.29,15.29,0,0,0,2,.23c.38,0,1.69.46,1.88,0s.63-.23.94-.33a3.7,3.7,0,0,1,2.66,0c-.85-1.3-1-.64-1.1-1.29-.06-.28.19-.38.11-.64Z"/><path class="cls-18" d="M73.57,165.28c0-.33-.24-.79-.24-1a1.84,1.84,0,0,0,.76.85c.24.13.47.29.71.42,0-.24-.42-.52-.56-.74a1.37,1.37,0,0,1-.16-.89,4.17,4.17,0,0,0,1.11.75c.18.1.45.2.52.39a1.71,1.71,0,0,0,0-1.14c-.08-.29-.34-.81-.11-1.1.31.59.73,1.14,1.06,1.73a1.47,1.47,0,0,1,.18.68c.21-.16.48-.25.56-.5a1.85,1.85,0,0,0,.06-.57,2.48,2.48,0,0,1,.31,1.63c-.1.14.64-.14.78-.17-.42.42-.46.83-.78.89s-1.07.11-1.34.11-1.14.24-1.27,0-.43-.12-.63-.16a3.24,3.24,0,0,0-1.8,0c.58-.67.65-.33.74-.66,0-.14-.13-.19-.07-.32Z"/></g></g></svg>